<svg width="800" height="360" viewBox="0 0 800 360" xmlns="http://www.w3.org/2000/svg" role="presentation" aria-hidden="true">
  <defs>
    <linearGradient id="bg" x1="80" y1="24" x2="720" y2="336" gradientUnits="userSpaceOnUse">
      <stop stop-color="#3A76F0" stop-opacity="0.18" />
      <stop offset="1" stop-color="#5AA4FF" stop-opacity="0.1" />
    </linearGradient>
    <radialGradient id="glow" cx="0.25" cy="0.15" r="0.7">
      <stop stop-color="#8BD4FF" stop-opacity="0.55" />
      <stop offset="1" stop-color="#3A76F0" stop-opacity="0" />
    </radialGradient>
  </defs>
  <rect width="800" height="360" fill="#0B1C2C" fill-opacity="0.03" />
  <rect x="20" y="20" width="760" height="320" rx="48" fill="url(#bg)" />
  <circle cx="160" cy="120" r="140" fill="url(#glow)" />
  <circle cx="620" cy="220" r="180" fill="url(#glow)" opacity="0.7" />
  <circle cx="700" cy="100" r="36" stroke="#8BD4FF" stroke-width="3" fill="none" opacity="0.6" />
  <circle cx="120" cy="270" r="28" stroke="#3A76F0" stroke-width="3" fill="none" opacity="0.5" />
  <path d="M520 160c0-14.36 11.64-26 26-26h78c19.33 0 35 15.67 35 35v32c0 19.33-15.67 35-35 35h-22.4c-1.74 0-3.4.69-4.63 1.92l-12.3 12.3c-3.16 3.16-8.57.93-8.57-3.54v-9.84H546c-14.36 0-26-11.64-26-26V160Z" stroke="#8BD4FF" stroke-width="3" fill="none" opacity="0.6" />
</svg>
