<svg width="420" height="120" viewBox="0 0 420 120" xmlns="http://www.w3.org/2000/svg" role="img" aria-labelledby="title desc">
  <title id="title">signal-client wordmark</title>
  <desc id="desc">Signal-inspired chat bubble paired with the word signal-client.</desc>
  <defs>
    <linearGradient id="wm-ring" x1="12" y1="10" x2="110" y2="108" gradientUnits="userSpaceOnUse">
      <stop stop-color="#3A76F0"/>
      <stop offset="1" stop-color="#5AA4FF"/>
    </linearGradient>
  </defs>
  <circle cx="60" cy="60" r="48" stroke="url(#wm-ring)" stroke-width="8" fill="#0B1C2C" fill-opacity="0.03" />
  <path d="M32 38c0-6.075 4.925-11 11-11h28c9.389 0 17 7.611 17 17v16c0 9.389-7.611 17-17 17H58.6c-1.066 0-2.09.424-2.846 1.18l-9.314 9.314C44.17 89.34 42 88.472 42 86.856V77H43c-6.075 0-11-4.925-11-11V38Z" fill="#ffffff" stroke="#3A76F0" stroke-width="2.6" />
  <circle cx="76" cy="50" r="4" fill="#3A76F0"/>
  <circle cx="62" cy="50" r="4" fill="#3A76F0"/>
  <circle cx="48" cy="50" r="4" fill="#3A76F0"/>
  <text x="140" y="69" font-family="'Manrope', 'Inter', system-ui, sans-serif" font-size="36" font-weight="700" fill="#0B1C2C">signal</text>
  <text x="260" y="69" font-family="'Manrope', 'Inter', system-ui, sans-serif" font-size="36" font-weight="600" fill="#3A76F0">client</text>
  <text x="140" y="94" font-family="'Manrope', 'Inter', system-ui, sans-serif" font-size="14" font-weight="500" fill="#4A6074">async Signal bots · resilience-first · community SDK</text>
</svg>
